<?xml version="1.0" encoding="UTF-8" standalone="no"?>
<svg
   xmlns:dc="http://purl.org/dc/elements/1.1/"
   xmlns:cc="http://creativecommons.org/ns#"
   xmlns:rdf="http://www.w3.org/1999/02/22-rdf-syntax-ns#"
   xmlns:svg="http://www.w3.org/2000/svg"
   xmlns="http://www.w3.org/2000/svg"
   xmlns:sodipodi="http://sodipodi.sourceforge.net/DTD/sodipodi-0.dtd"
   xmlns:inkscape="http://www.inkscape.org/namespaces/inkscape"
   viewBox="363.82 73.82 256.00001 255.99999"
   version="1.1"
   id="svg8"
   sodipodi:docname="aiohttp-icon.svg"
   inkscape:version="0.92.2 (5c3e80d, 2017-08-06)"
   width="256"
   height="256">
  <metadata
     id="metadata12">
    <rdf:RDF>
      <cc:Work
         rdf:about="">
        <dc:format>image/svg+xml</dc:format>
        <dc:type
           rdf:resource="http://purl.org/dc/dcmitype/StillImage" />
        <dc:title></dc:title>
      </cc:Work>
    </rdf:RDF>
  </metadata>
  <sodipodi:namedview
     pagecolor="#ffffff"
     bordercolor="#666666"
     borderopacity="1"
     objecttolerance="10"
     gridtolerance="10"
     guidetolerance="10"
     inkscape:pageopacity="0"
     inkscape:pageshadow="2"
     inkscape:window-width="3200"
     inkscape:window-height="1689"
     id="namedview10"
     showgrid="false"
     inkscape:zoom="12.526539"
     inkscape:cx="22.567249"
     inkscape:cy="25.483275"
     inkscape:window-x="0"
     inkscape:window-y="55"
     inkscape:window-maximized="1"
     inkscape:current-layer="svg8"
     units="px"
     inkscape:pagecheckerboard="true" />
  <defs
     id="defs4">
    <style
       id="style2">.a{fill:#2c5bb4;}</style>
  </defs>
  <path
     class="a"
     d="m 363.82,292.13896 a 37.74,37.74 0 0 1 37.68,-37.679 37.74,37.74 0 0 1 37.679,37.679 37.741,37.741 0 0 1 -37.679,37.681 37.741,37.741 0 0 1 -37.68,-37.681 z m 37.68,34.553 a 34.377,34.377 0 0 0 21.384,-7.432 l -0.952,-2.061 a 2.343,2.343 0 0 1 -0.733,0.117 2.346,2.346 0 0 1 -2.345,-2.345 2.343,2.343 0 0 1 1.126,-2 l -2.266,-4.909 a 3.905,3.905 0 0 1 -1.2,0.189 3.91,3.91 0 0 1 -3.644,-2.492 l -7.77,1.987 q 0,0.018 0,0.037 a 2.346,2.346 0 0 1 -2.35,2.337 2.345,2.345 0 0 1 -2.344,-2.345 2.352,2.352 0 0 1 0.065,-0.551 l -10.906,-4.689 a 3.906,3.906 0 0 1 -3.388,1.957 3.933,3.933 0 0 1 -0.625,-0.05 l -2.349,8.136 a 2.346,2.346 0 0 1 1.254,2.076 2.347,2.347 0 0 1 -1.788,2.279 l 0.164,4.268 a 34.336,34.336 0 0 0 18.667,5.491 z m -19.63,-6.132 -0.138,-3.587 a 2.346,2.346 0 0 1 -1.965,-2.315 2.345,2.345 0 0 1 2.344,-2.345 q 0.1,0 0.19,0.008 l 2.349,-8.134 a 3.91,3.91 0 0 1 -2.382,-3.6 v 0 l -14.676,-1.778 a 34.651,34.651 0 0 0 14.278,21.751 z m 41.765,-1.91 a 34.8,34.8 0 0 0 8.6,-10.741 l -12.011,-2.359 a 3.92,3.92 0 0 1 -1.659,2.11 l 2.3,4.986 a 2.366,2.366 0 0 1 0.333,-0.024 2.345,2.345 0 0 1 2.345,2.344 2.34,2.34 0 0 1 -0.8,1.76 z m 9.036,-11.612 a 34.334,34.334 0 0 0 3.381,-14.899 34.384,34.384 0 0 0 -7.825,-21.868 l -4.747,1.618 a 2.35,2.35 0 0 1 0.065,0.551 2.345,2.345 0 0 1 -2.345,2.345 2.346,2.346 0 0 1 -2.142,-1.389 l -9.868,3.364 a 7.827,7.827 0 0 1 0.283,2.091 7.81,7.81 0 0 1 -3.47,6.5 l 8.969,15.391 a 3.9,3.9 0 0 1 1.537,-0.314 3.909,3.909 0 0 1 3.911,3.906 q 0,0.146 -0.011,0.29 z m -27.778,-0.211 7.74,-1.979 a 3.948,3.948 0 0 1 -0.033,-0.507 3.9,3.9 0 0 1 1.56,-3.125 l -8.967,-15.387 a 7.783,7.783 0 0 1 -3.538,0.844 7.781,7.781 0 0 1 -4.135,-1.187 l -8.7,12.217 a 3.9,3.9 0 0 1 1.265,2.879 3.913,3.913 0 0 1 -0.154,1.088 l 10.937,4.7 a 2.341,2.341 0 0 1 1.88,-0.944 2.346,2.346 0 0 1 2.146,1.395 z m -22.513,-7.172 a 3.911,3.911 0 0 1 3.8,-2.975 3.891,3.891 0 0 1 1.882,0.482 l 8.7,-12.213 a 7.8,7.8 0 0 1 -2.92,-6.093 7.787,7.787 0 0 1 1.936,-5.15 l -11.624,-11.438 a 34.582,34.582 0 0 0 -17.207,29.871 34.6,34.6 0 0 0 0.47,5.7 z m 26.5,-23.778 9.969,-3.4 q 0,-0.017 0,-0.034 a 2.346,2.346 0 0 1 2.345,-2.345 2.342,2.342 0 0 1 1.878,0.94 l 4.5,-1.534 a 34.485,34.485 0 0 0 -26.072,-11.917 34.325,34.325 0 0 0 -16.5,4.2 l 11.43,11.244 a 7.787,7.787 0 0 1 5.222,-2 7.82,7.82 0 0 1 7.234,4.84 z"
     id="path6"
     inkscape:connector-curvature="0"
     style="fill:#2c5bb4" />
</svg>
