<svg version="1.1" width="256" height="256" viewBox="0 0 24 24" xmlns="http://www.w3.org/2000/svg"><path d="m0 11.9a11.92 11.92 0 0 1 11.9-11.9 11.92 11.92 0 0 1 11.9 11.9 11.92 11.92 0 0 1-11.9 11.9 11.92 11.92 0 0 1-11.9-11.9zm11.9 10.91a10.86 10.86 0 0 0 6.753-2.347l-0.3006-0.6508a0.7399 0.7399 0 0 1-0.2315 0.03695 0.7408 0.7408 0 0 1-0.7405-0.7405 0.7399 0.7399 0 0 1 0.3556-0.6316l-0.7156-1.55a1.233 1.233 0 0 1-0.379 0.05968 1.235 1.235 0 0 1-1.151-0.787l-2.454 0.6275q0 0.0057 0 0.01168a0.7408 0.7408 0 0 1-0.7421 0.738 0.7405 0.7405 0 0 1-0.7402-0.7405 0.7427 0.7427 0 0 1 0.02053-0.174l-3.444-1.481a1.234 1.234 0 0 1-1.07 0.618 1.242 1.242 0 0 1-0.1974-0.01579l-0.7418 2.569a0.7408 0.7408 0 0 1 0.396 0.6556 0.7412 0.7412 0 0 1-0.5646 0.7197l0.05179 1.348a10.84 10.84 0 0 0 5.895 1.734zm-6.199-1.936-0.04358-1.133a0.7408 0.7408 0 0 1-0.6205-0.731 0.7405 0.7405 0 0 1 0.7402-0.7405q0.03158 0 0.06 0.0025l0.7418-2.569a1.235 1.235 0 0 1-0.7522-1.137l-4.634-0.5615a10.94 10.94 0 0 0 4.509 6.869zm13.19-0.6032a10.99 10.99 0 0 0 2.716-3.392l-3.793-0.745a1.238 1.238 0 0 1-0.5239 0.6663l0.7263 1.574a0.7472 0.7472 0 0 1 0.1052-0.0076 0.7405 0.7405 0 0 1 0.7405 0.7402 0.739 0.739 0 0 1-0.2526 0.5558zm2.854-3.667a10.84 10.84 0 0 0 1.068-4.705 10.86 10.86 0 0 0-2.471-6.906l-1.499 0.511a0.7421 0.7421 0 0 1 0.02053 0.174 0.7405 0.7405 0 0 1-0.7405 0.7405 0.7408 0.7408 0 0 1-0.6764-0.4386l-3.116 1.062a2.472 2.472 0 0 1 0.08937 0.6603 2.466 2.466 0 0 1-1.096 2.053l2.832 4.86a1.232 1.232 0 0 1 0.4854-0.09916 1.234 1.234 0 0 1 1.235 1.234q0 0.04611-0.0035 0.09158zm-8.772-0.06663 2.444-0.625a1.247 1.247 0 0 1-0.01042-0.1601 1.232 1.232 0 0 1 0.4926-0.9868l-2.832-4.859a2.458 2.458 0 0 1-1.117 0.2665 2.457 2.457 0 0 1-1.306-0.3748l-2.747 3.858a1.232 1.232 0 0 1 0.3995 0.9092 1.236 1.236 0 0 1-0.04863 0.3436l3.454 1.484a0.7393 0.7393 0 0 1 0.5937-0.2981 0.7408 0.7408 0 0 1 0.6777 0.4405zm-7.109-2.265a1.235 1.235 0 0 1 1.2-0.9395 1.229 1.229 0 0 1 0.5943 0.1522l2.747-3.857a2.463 2.463 0 0 1-0.9221-1.924 2.459 2.459 0 0 1 0.6114-1.626l-3.671-3.612a10.92 10.92 0 0 0-5.434 9.433 10.93 10.93 0 0 0 0.1484 1.8zm8.368-7.509 3.148-1.074q0-0.00537 0-0.01074a0.7408 0.7408 0 0 1 0.7405-0.7405 0.7396 0.7396 0 0 1 0.593 0.2968l1.421-0.4844a10.89 10.89 0 0 0-8.233-3.763 10.84 10.84 0 0 0-5.21 1.326l3.61 3.551a2.459 2.459 0 0 1 1.649-0.6316 2.47 2.47 0 0 1 2.284 1.528z" style="fill:#2c5bb4"/></svg>
